<svg width="38" height="33" viewBox="0 0 38 33" fill="none" xmlns="http://www.w3.org/2000/svg">
<rect y="0.5" width="38" height="32" rx="4" fill="#343A40"/>
<path d="M14.1584 23.64C13.8918 23.64 13.6718 23.5733 13.4984 23.44C13.3251 23.2933 13.2251 23.1133 13.1984 22.9C13.1718 22.6733 13.2451 22.4467 13.4184 22.22L18.1384 15.88V16.72L13.6784 10.72C13.5051 10.48 13.4251 10.2467 13.4384 10.02C13.4651 9.79333 13.5651 9.61333 13.7384 9.48C13.9118 9.33333 14.1251 9.26 14.3784 9.26C14.5918 9.26 14.7784 9.31333 14.9384 9.42C15.1118 9.51333 15.2851 9.68 15.4584 9.92L19.3384 15.24H18.6984L22.5384 9.92C22.7118 9.68 22.8784 9.51333 23.0384 9.42C23.2118 9.31333 23.4118 9.26 23.6384 9.26C23.9051 9.26 24.1251 9.33333 24.2984 9.48C24.4718 9.61333 24.5651 9.79333 24.5784 10.02C24.6051 10.2333 24.5251 10.4667 24.3384 10.72L19.8784 16.72V15.88L24.5784 22.22C24.7518 22.4467 24.8251 22.6733 24.7984 22.9C24.7851 23.1133 24.6918 23.2933 24.5184 23.44C24.3451 23.5733 24.1184 23.64 23.8384 23.64C23.6384 23.64 23.4518 23.5867 23.2784 23.48C23.1051 23.3733 22.9251 23.2067 22.7384 22.98L18.6184 17.34H19.3784L15.2784 22.98C15.1051 23.2067 14.9251 23.3733 14.7384 23.48C14.5651 23.5867 14.3718 23.64 14.1584 23.64Z" fill="#ADB5BD"/>
</svg>
